<?xml version="1.0" standalone="no"?>
<!DOCTYPE svg PUBLIC "-//W3C//DTD SVG 20010904//EN"
 "http://www.w3.org/TR/2001/REC-SVG-20010904/DTD/svg10.dtd">
<svg version="1.0" xmlns="http://www.w3.org/2000/svg"
 width="700.000000pt" height="700.000000pt" viewBox="0 0 700.000000 700.000000"
 preserveAspectRatio="xMidYMid meet">
<metadata>
Created by potrace 1.11, written by Peter Selinger 2001-2013
</metadata>
<g transform="translate(0.000000,700.000000) scale(0.100000,-0.100000)"
fill="#000000" stroke="none">
<path d="M2610 6984 c-30 -8 -113 -33 -185 -56 -1095 -341 -1969 -1198 -2330
-2283 -104 -310 -95 -209 -95 -1152 l1 -828 34 -120 c92 -325 218 -617 388
-900 57 -95 198 -303 237 -349 10 -11 55 -66 101 -120 459 -550 1124 -969
1826 -1151 l95 -25 817 0 817 0 99 26 c348 89 683 236 1015 444 80 50 303 212
379 276 107 90 277 256 381 373 36 41 70 79 75 85 6 6 24 29 40 51 17 22 35
45 40 52 6 7 15 18 21 26 130 157 327 495 433 745 80 188 146 380 189 551 9
36 8 1720 -1 1751 -110 382 -203 612 -355 880 -416 737 -1069 1299 -1857 1600
-116 44 -198 70 -345 111 l-105 29 -830 -1 c-693 -1 -839 -3 -885 -15z m1165
-88 c22 -3 66 -8 99 -11 32 -3 113 -14 180 -25 158 -26 170 -28 241 -47 33 -8
70 -17 82 -19 12 -2 85 -25 164 -50 803 -258 1473 -799 1909 -1539 43 -74 154
-296 190 -380 74 -176 166 -465 186 -585 2 -14 9 -45 14 -70 16 -75 39 -220
45 -290 16 -162 19 -225 19 -360 0 -287 -19 -480 -75 -740 -12 -52 -23 -104
-25 -116 -13 -70 -114 -373 -148 -449 -8 -16 -26 -59 -41 -95 -90 -216 -257
-493 -428 -713 -526 -672 -1297 -1132 -2122 -1267 -33 -5 -80 -12 -105 -15
-25 -3 -56 -8 -70 -10 -110 -18 -478 -24 -665 -11 -60 4 -112 9 -115 11 -3 1
-32 6 -65 9 -33 4 -69 9 -80 11 -11 3 -36 7 -55 10 -19 2 -44 7 -55 9 -11 3
-54 12 -95 21 -110 23 -280 72 -402 116 -473 169 -887 430 -1238 779 -184 183
-210 212 -317 350 -250 326 -437 685 -556 1070 -41 133 -88 323 -101 410 -3
19 -10 67 -16 105 -40 270 -46 630 -15 880 2 17 7 55 10 85 4 30 8 57 10 60 1
3 6 26 9 52 9 64 52 257 78 348 124 436 340 852 630 1214 103 128 384 409 508
507 503 399 1046 634 1670 723 58 8 148 18 200 22 52 3 96 7 98 9 5 4 410 -3
447 -9z"/>
<path d="M3435 6364 c-14 -15 -25 -34 -26 -43 -1 -27 -5 -54 -14 -91 -28 -124
-174 -260 -386 -358 -76 -35 -246 -97 -295 -106 -228 -46 -240 -48 -384 -61
-58 -6 -164 -12 -242 -14 -30 -1 -77 -42 -79 -69 0 -9 -2 -172 -3 -362 l-2
-345 -347 -692 c-261 -521 -347 -702 -347 -728 0 -41 38 -85 74 -86 27 0 1369
0 1417 0 49 1 89 41 89 87 0 25 -97 227 -347 727 l-348 692 -1 298 -1 297 51
1 c28 1 62 2 76 4 14 1 54 5 90 9 36 3 76 8 90 11 14 2 41 6 60 9 103 16 255
55 360 91 217 74 370 164 497 291 l82 82 83 -82 c84 -83 142 -125 258 -189
136 -74 377 -155 543 -182 17 -3 43 -7 57 -10 93 -17 239 -33 321 -34 l45 -1
-1 -297 -1 -298 -347 -692 c-261 -521 -347 -702 -347 -728 0 -26 7 -43 26 -60
15 -14 32 -25 38 -26 15 0 1382 0 1428 0 50 1 88 39 88 86 0 26 -92 219 -347
727 l-347 693 -2 356 c-2 443 8 418 -163 424 -86 3 -240 14 -270 20 -9 1 -36
6 -61 9 -504 75 -889 314 -906 561 -4 73 -34 105 -99 105 -26 0 -43 -7 -60
-26z m-1127 -2089 c110 -220 232 -463 270 -541 l71 -141 -547 1 c-301 1 -546
4 -545 9 13 38 540 1082 545 1078 3 -3 96 -186 206 -406z m2866 -132 c146
-293 266 -536 266 -541 0 -10 -1074 -10 -1077 0 -5 13 531 1085 539 1079 3 -3
126 -245 272 -538z"/>
<path d="M3463 5685 c-60 -25 -56 81 -57 -1677 l-1 -1613 -24 -44 c-62 -118
-233 -235 -471 -324 -145 -54 -248 -81 -500 -132 -17 -3 -86 -12 -157 -20 -27
-3 -62 -8 -79 -10 -52 -7 -181 -15 -321 -20 -79 -2 -140 -9 -151 -16 -75 -47
-45 -168 42 -170 17 0 819 -1 1782 -1 1236 0 1757 3 1771 10 27 15 51 67 45
97 -5 26 -47 75 -66 76 -6 0 -65 2 -131 4 -243 8 -371 21 -605 61 -389 66
-759 228 -883 388 -66 85 -61 -54 -63 1706 -1 877 -3 1605 -3 1618 -1 28 -42
68 -75 74 -14 3 -37 0 -53 -7z m102 -3563 c39 -37 99 -87 135 -110 74 -49 281
-152 312 -156 3 -1 9 -4 12 -7 3 -3 -233 -5 -526 -5 -475 0 -527 1 -497 14
119 52 284 139 339 181 48 36 150 135 155 150 1 1 32 -30 70 -67z"/>
<path d="M1044 3242 c-64 -10 -99 -60 -81 -118 22 -71 -57 -67 1111 -66 578 0
1065 1 1082 1 83 2 115 122 46 167 -25 16 -100 18 -1083 18 -580 1 -1064 0
-1075 -2z"/>
<path d="M3817 3235 c-35 -12 -66 -64 -60 -100 6 -29 49 -75 72 -76 21 -1
2041 -1 2107 0 68 1 104 32 104 89 0 42 -37 91 -69 93 -9 0 -490 2 -1070 2
-680 1 -1065 -2 -1084 -8z"/>
<path d="M1738 2892 c-74 -9 -106 -107 -52 -157 19 -18 39 -25 68 -26 23 0
195 0 383 0 304 -1 344 1 367 16 51 34 50 117 -2 151 -23 15 -64 17 -381 18
-196 1 -368 0 -383 -2z"/>
<path d="M4553 2892 c-58 -4 -93 -38 -93 -92 0 -31 6 -47 26 -65 15 -14 36
-25 48 -26 33 0 656 -1 707 0 61 1 99 36 99 92 0 38 -35 88 -63 90 -37 2 -689
4 -724 1z"/>
<path d="M1037 1489 c-21 -3 -46 -16 -57 -29 -33 -38 -24 -108 17 -135 23 -15
228 -17 2496 -16 1360 0 2477 0 2483 1 6 0 23 11 38 25 53 49 18 154 -53 156
-136 4 -4897 3 -4924 -2z"/>
</g>
</svg>
